<svg width="933" height="898" viewBox="0 0 933 898" fill="none" xmlns="http://www.w3.org/2000/svg">
<path d="M339.314 15.958C345.44 15.958 351.088 19.05 354.034 23.9953L391.716 87.6167L396.946 96.4446L407.099 94.9699C426.266 92.1873 445.811 90.7753 465.191 90.7767C485.768 90.7767 506.5 92.3659 526.811 95.4979L536.914 97.0566L542.231 88.3273L580.804 24.9993L580.846 24.9313L580.886 24.8633C583.826 19.9207 589.43 16.8513 595.51 16.8513C597.767 16.8513 599.974 17.2753 602.007 18.0846L689.236 53.2646C696.884 56.3739 700.886 64.0526 698.748 71.5246L698.72 71.622L698.694 71.7193L679.715 141.541L676.912 151.85L685.618 158.042C718.032 181.101 746.432 208.721 770.028 240.134L776.154 248.289L786.039 245.785L859.736 227.121L859.828 227.097L859.92 227.073C861.415 226.674 862.951 226.473 864.486 226.473C871.204 226.473 877.375 230.373 879.864 236.234L916.206 320.85C919.179 327.953 916.218 335.93 909.155 339.858L843.046 375.483L833.499 380.627L835.178 391.341C841.139 429.383 840.943 467.935 834.594 505.925L832.822 516.526L842.187 521.799L908.03 558.873L908.096 558.91L908.164 558.947C915.267 562.853 918.202 570.839 915.155 577.91L878.531 662.437L878.45 662.623L878.374 662.811C876.087 668.497 870.155 672.317 863.614 672.317C861.992 672.317 860.376 672.081 858.81 671.617L858.499 671.523L858.184 671.445L785.582 653.215L775.836 650.769L769.71 658.733C745.73 689.897 716.995 717.217 684.302 739.93L675.408 746.11L678.266 756.555L697.651 827.418L697.67 827.482L697.687 827.546C699.762 834.874 695.647 842.659 688.124 845.653L600.086 880.639C598.003 881.461 595.811 881.878 593.574 881.878C587.483 881.878 581.882 878.802 578.95 873.849L541.916 810.274L536.711 801.339L526.476 802.825C507.311 805.607 487.767 807.018 468.384 807.018C447.811 807.018 427.079 805.43 406.766 802.297L396.663 800.738L391.346 809.467L352.772 872.795L352.731 872.863L352.69 872.931C349.75 877.874 344.146 880.943 338.066 880.943C335.81 880.943 333.603 880.521 331.535 879.697L243.699 844.525C236.063 841.41 232.072 833.738 234.207 826.273L234.222 826.221L234.236 826.17L253.682 756.347L256.566 745.987L247.803 739.753C215.39 716.695 186.99 689.075 163.392 657.661L157.267 649.507L147.382 652.011L73.6857 670.675L73.6243 670.691L73.5643 670.706C72.0777 671.095 70.551 671.294 69.027 671.294C62.171 671.294 56.0977 667.471 53.5563 661.562L17.1843 576.87C14.1577 569.837 17.0057 561.855 23.9537 557.855L90.0017 521.666L99.4416 516.494L97.775 505.859C91.8136 467.815 92.0096 429.263 98.359 391.275L100.131 380.674L90.7657 375.401L24.9216 338.327L24.855 338.29L24.7883 338.253C17.6857 334.346 14.751 326.361 17.7817 319.327L54.4177 235.377C56.979 229.483 63.0523 225.675 69.8883 225.675C71.4483 225.675 73.0096 225.882 74.5283 226.29L74.607 226.311L74.6857 226.331L147.288 245.007L157.082 247.527L163.247 239.514C187.227 208.349 215.963 181.03 248.656 158.315L257.55 152.135L254.691 141.691L235.306 70.8287L235.288 70.7633L235.27 70.698C233.195 63.3713 237.31 55.5859 244.895 52.5673L332.875 17.1566C334.938 16.3606 337.104 15.958 339.314 15.958Z" fill="white"/>
<path d="M151.714 592.635H154.108C158.378 592.635 159.914 590.245 159.914 585.119V526.87C159.914 520.89 157.693 519.523 153.936 519.523H151.714V592.635ZM124.554 499.195H154.277C176.656 499.195 187.418 507.907 187.418 534.385V576.237C187.418 599.982 181.268 612.963 158.206 612.963H124.554V499.195Z" fill="#4784DA"/>
<path d="M231.663 556.251V546.855C231.663 542.243 231.15 539.51 227.735 539.51C225.002 539.51 223.806 542.074 223.806 546.855V556.251H231.663ZM223.806 573.163V587.17C223.806 591.952 224.83 593.832 227.563 593.832C230.467 593.832 231.835 592.294 231.835 586.658V581.534H257.971V584.436C257.971 602.031 250.966 614.5 226.882 614.5C204.845 614.5 196.303 603.911 196.303 584.436V549.418C196.303 529.09 209.115 519.523 227.393 519.523C245.33 519.523 258.141 528.066 258.141 549.418V573.163H223.806Z" fill="#4784DA"/>
<path d="M291.113 520.89C292.821 541.218 294.53 573.674 295.214 585.292H296.238C297.263 570.77 299.483 543.438 301.534 520.89H328.523L314.003 612.964H276.763L261.903 520.89H291.113Z" fill="#4784DA"/>
<path d="M362.859 525.673V586.487C362.859 590.757 364.055 593.32 366.959 593.32C369.521 593.32 371.059 591.099 371.059 586.487V525.503C371.059 520.377 369.862 518.841 366.789 518.841C364.226 518.841 362.859 520.549 362.859 525.673ZM398.561 528.92V583.241C398.561 606.303 385.921 614.672 366.105 614.672C346.973 614.672 335.699 605.619 335.699 583.241V527.552C335.699 506.541 348.682 497.488 366.789 497.488C384.897 497.488 398.561 506.712 398.561 528.92Z" fill="#4784DA"/>
<path d="M443.491 584.778V548.563C443.491 544.463 442.294 541.902 439.562 541.902C436.316 541.902 435.291 544.634 435.291 550.102V583.582C435.291 588.707 436.144 591.781 439.22 591.781C441.439 591.781 443.491 590.586 443.491 584.778ZM435.291 606.815V641.322H408.131V547.367C408.131 535.067 407.959 523.965 407.787 520.89H434.095C434.264 522.769 434.778 526.186 434.95 529.431C437.512 524.649 443.148 519.523 452.544 519.523C465.184 519.523 470.651 527.21 470.651 543.269V587.854C470.651 602.031 466.894 614.501 449.468 614.501C446.564 614.501 439.048 613.646 435.291 606.815Z" fill="#4784DA"/>
<path d="M501.914 582.046V586.487C501.914 592.124 502.94 595.028 505.844 595.028C507.552 595.028 508.92 593.662 508.92 589.731C508.92 584.95 508.065 582.556 497.986 576.236C482.442 566.499 478.17 560.008 478.17 546.514C478.17 528.406 488.078 519.523 506.526 519.523C532.15 519.523 534.713 534.215 534.713 546V550.612H511.138V545.488C511.138 540.023 510.456 538.143 507.724 538.143C505.502 538.143 504.308 539.682 504.308 543.782C504.308 547.539 506.698 549.759 514.214 554.202C531.638 564.62 536.08 573.504 536.08 584.778C536.08 603.056 530.272 614.5 506.526 614.5C479.194 614.5 477.658 597.591 477.658 584.266V582.046H501.914Z" fill="#4784DA"/>
<path d="M774.613 582.046V586.487C774.613 592.124 775.638 595.028 778.542 595.028C780.25 595.028 781.618 593.662 781.618 589.731C781.618 584.95 780.763 582.556 770.685 576.236C755.141 566.499 750.869 560.008 750.869 546.514C750.869 528.406 760.777 519.523 779.225 519.523C804.849 519.523 807.411 534.215 807.411 546V550.612H783.837V545.488C783.837 540.023 783.154 538.143 780.422 538.143C778.201 538.143 777.006 539.682 777.006 543.782C777.006 547.539 779.397 549.759 786.913 554.202C804.337 564.62 808.778 573.504 808.778 584.778C808.778 603.056 802.97 614.5 779.225 614.5C751.893 614.5 750.357 597.591 750.357 584.266V582.046H774.613Z" fill="#58A7EB"/>
<path d="M570.761 592.635H573.154C577.425 592.635 578.961 590.245 578.961 585.119V526.87C578.961 520.89 576.739 519.523 572.982 519.523H570.761V592.635ZM543.601 499.195H573.323C595.702 499.195 606.462 507.907 606.462 534.385V576.237C606.462 599.982 600.314 612.963 577.253 612.963H543.601V499.195Z" fill="#58A7EB"/>
<path d="M649.341 572.478H648.145C643.705 572.478 641.142 575.554 641.142 582.729V583.412C641.142 590.416 642.85 592.294 645.413 592.294C648.317 592.294 649.341 589.732 649.341 585.12V572.478ZM676.844 589.39C676.844 602.202 677.185 608.352 677.698 612.964H651.734C650.88 611.597 650.366 607.497 650.196 605.789C646.096 612.281 639.946 614.16 633.626 614.16C619.446 614.16 613.982 601.518 613.982 587V585.12C613.982 560.862 630.038 555.225 647.976 555.225H649.341V544.977C649.341 540.022 648.145 538.826 645.754 538.826C643.364 538.826 642.166 540.365 642.166 545.83V549.589H616.714V547.196C616.714 526.698 627.818 519.524 647.121 519.524C665.229 519.524 676.844 526.186 676.844 543.781V589.39Z" fill="#58A7EB"/>
<path d="M710.496 520.89C712.035 536.094 715.108 567.697 715.45 578.798H716.816C717.502 566.329 719.038 544.464 721.087 520.89H749.615C746.028 535.068 740.05 570.77 731.166 610.23C727.067 628.509 726.042 641.833 701.443 641.833C696.147 641.833 692.047 641.492 688.462 640.978V618.944C690.339 619.113 691.535 619.285 693.074 619.285C697.686 619.285 700.759 618.43 701.102 616.209L680.943 520.89H710.496Z" fill="#58A7EB"/>
<path d="M534.456 675.575V701.353L517.833 675.066C517.659 674.79 517.355 674.622 517.028 674.622H509.123C508.596 674.622 508.169 675.049 508.169 675.575V717.674C508.169 718.201 508.596 718.627 509.123 718.627H516.6C517.125 718.627 517.552 718.201 517.552 717.674V692.097L534.097 718.185C534.272 718.459 534.575 718.627 534.901 718.627H542.887C543.412 718.627 543.839 718.201 543.839 717.674V675.575C543.839 675.049 543.412 674.622 542.887 674.622H535.409C534.883 674.622 534.456 675.049 534.456 675.575Z" fill="black"/>
<path d="M435.499 718.637H442.884C443.409 718.637 443.836 718.21 443.836 717.684V675.517C443.836 674.99 443.409 674.564 442.884 674.564H435.499C434.972 674.564 434.545 674.99 434.545 675.517V717.684C434.545 718.21 434.972 718.637 435.499 718.637Z" fill="black"/>
<path d="M467.05 717.937L476.003 686.945L484.955 717.937C485.074 718.345 485.446 718.625 485.871 718.625H493.558C494.192 718.625 494.65 718.017 494.474 717.407L482.292 675.242C482.175 674.834 481.802 674.554 481.376 674.554H470.628C470.204 674.554 469.831 674.834 469.712 675.242L457.532 717.407C457.356 718.017 457.812 718.625 458.447 718.625H466.134C466.559 718.625 466.932 718.345 467.05 717.937Z" fill="black"/>
<path d="M558.32 718.638H565.705C566.23 718.638 566.657 718.212 566.657 717.685V675.518C566.657 674.992 566.23 674.565 565.705 674.565H558.32C557.793 674.565 557.366 674.992 557.366 675.518V717.685C557.366 718.212 557.793 718.638 558.32 718.638Z" fill="black"/>
<path d="M590.109 717.937L599.062 686.945L608.014 717.937C608.133 718.345 608.505 718.625 608.93 718.625H616.617C617.251 718.625 617.709 718.017 617.533 717.407L605.351 675.242C605.234 674.834 604.861 674.554 604.435 674.554H593.687C593.263 674.554 592.89 674.834 592.771 675.242L580.591 717.407C580.415 718.017 580.873 718.625 581.506 718.625H589.193C589.618 718.625 589.991 718.345 590.109 717.937Z" fill="black"/>
<path d="M337.816 691.944V699.329C337.816 699.854 338.243 700.281 338.769 700.281H351.373C349.427 706.114 343.827 710.276 337.287 710.04C329.907 709.773 323.88 703.812 323.539 696.434C323.159 688.232 329.696 681.462 337.816 681.462C341.436 681.462 344.743 682.808 347.261 685.026C347.643 685.364 348.216 685.356 348.576 684.996L353.804 679.768C354.185 679.385 354.176 678.76 353.779 678.394C349.472 674.432 343.688 672.052 337.347 672.176C324.821 672.42 314.581 682.574 314.241 695.097C313.877 708.441 324.6 719.368 337.868 719.34C350.92 719.312 361.4 708.521 361.4 695.47V690.99H338.769C338.243 690.99 337.816 691.417 337.816 691.944Z" fill="black"/>
<path d="M411.698 697.791L413.376 698.761C413.813 699.013 414.028 699.53 413.896 700.018C413.705 700.718 413.468 701.407 413.182 702.082C412.928 702.682 412.64 703.265 412.318 703.826C412.065 704.267 411.549 704.485 411.057 704.353L409.188 703.853C408.802 703.749 408.39 703.859 408.109 704.142L406.598 705.653C406.316 705.934 406.205 706.346 406.309 706.731L406.809 708.601C406.94 709.093 406.722 709.609 406.282 709.862C405.721 710.183 405.138 710.471 404.538 710.726C403.864 711.011 403.174 711.249 402.474 711.439C401.986 711.571 401.469 711.357 401.216 710.919L400.248 709.242C400.048 708.897 399.678 708.683 399.28 708.683H397.144C396.744 708.683 396.376 708.897 396.176 709.242L395.206 710.919C394.953 711.357 394.437 711.571 393.948 711.439C393.249 711.249 392.56 711.011 391.885 710.726C391.285 710.471 390.702 710.183 390.141 709.862C389.7 709.609 389.482 709.093 389.614 708.601L390.114 706.731C390.218 706.346 390.108 705.934 389.825 705.653L388.314 704.142C388.032 703.859 387.621 703.749 387.236 703.853L385.365 704.353C384.874 704.485 384.357 704.267 384.105 703.826C383.784 703.265 383.496 702.682 383.241 702.082C382.956 701.407 382.718 700.718 382.528 700.018C382.394 699.53 382.609 699.013 383.048 698.761L384.725 697.791C385.07 697.591 385.284 697.223 385.284 696.823V694.687C385.284 694.287 385.07 693.919 384.725 693.719L383.048 692.75C382.609 692.497 382.394 691.981 382.528 691.493C382.718 690.793 382.956 690.103 383.241 689.429C383.496 688.829 383.784 688.246 384.105 687.685C384.357 687.243 384.874 687.026 385.365 687.158L387.236 687.658C387.621 687.762 388.032 687.651 388.314 687.369L389.825 685.858C390.108 685.577 390.218 685.165 390.114 684.779L389.614 682.91C389.482 682.418 389.7 681.901 390.141 681.649C390.702 681.327 391.285 681.039 391.885 680.785C392.56 680.499 393.249 680.262 393.948 680.071C394.437 679.938 394.953 680.154 395.206 680.591L396.176 682.269C396.376 682.614 396.744 682.827 397.144 682.827H399.28C399.678 682.827 400.048 682.614 400.248 682.269L401.216 680.591C401.469 680.154 401.986 679.938 402.474 680.071C403.174 680.262 403.864 680.499 404.538 680.785C405.138 681.039 405.721 681.327 406.282 681.649C406.722 681.901 406.94 682.418 406.809 682.91L406.309 684.779C406.205 685.165 406.316 685.577 406.598 685.858L408.109 687.369C408.39 687.651 408.802 687.762 409.188 687.658L411.057 687.158C411.549 687.026 412.065 687.243 412.318 687.685C412.64 688.246 412.928 688.829 413.182 689.429C413.468 690.103 413.705 690.793 413.896 691.493C414.028 691.981 413.813 692.497 413.376 692.75L411.698 693.719C411.353 693.919 411.14 694.287 411.14 694.687V696.823C411.14 697.223 411.353 697.591 411.698 697.791ZM398.212 672.171C385.186 672.171 374.628 682.73 374.628 695.755C374.628 708.781 385.186 719.339 398.212 719.339C411.237 719.339 421.796 708.781 421.796 695.755C421.796 682.73 411.237 672.171 398.212 672.171Z" fill="black"/>
<path d="M483.843 673.534L486.153 667.886C486.352 667.4 486.119 666.844 485.631 666.645L480.379 664.309H471.627L466.373 666.645C465.887 666.844 465.652 667.4 465.851 667.886L468.163 673.534C468.361 674.022 468.917 674.256 469.404 674.057L473.448 672.409H478.557L482.6 674.057C483.088 674.256 483.644 674.022 483.843 673.534Z" fill="black"/>
<path d="M339.314 0.63783C335.279 0.63783 331.187 1.3712 327.247 2.9072L239.175 38.3552C224.286 44.2792 216.298 59.9231 220.528 74.8711L239.915 145.734C205.97 169.317 176.014 197.798 151.106 230.171L78.5017 211.494C75.6364 210.725 72.7417 210.355 69.8884 210.355C57.2644 210.355 45.447 217.58 40.367 229.27L3.74038 313.199C-2.42495 327.507 3.42837 343.99 17.4057 351.676L83.2484 388.75C76.6364 428.31 76.431 468.614 82.639 508.23L16.4684 544.487C2.68837 552.319 -3.00629 568.703 3.10971 582.923L39.479 667.607C44.5244 679.339 56.363 686.614 69.027 686.614C71.815 686.614 74.6417 686.262 77.447 685.527L151.143 666.862C175.658 699.496 205.266 728.294 238.923 752.236L219.478 822.059C215.202 837.01 223.102 852.69 237.95 858.726L325.839 893.918C329.824 895.506 333.975 896.263 338.066 896.263C349.246 896.263 360 890.607 365.856 880.766L404.43 817.438C425.608 820.704 446.998 822.339 468.384 822.339C488.539 822.339 508.69 820.888 528.678 817.986L565.74 881.61C571.574 891.502 582.356 897.198 593.574 897.198C597.634 897.198 601.748 896.452 605.707 894.891L693.783 859.89C708.671 853.966 716.659 838.322 712.428 823.375L693.043 752.512C726.987 728.928 756.943 700.447 781.851 668.075L854.452 686.303C857.494 687.206 860.579 687.636 863.614 687.636C876.135 687.636 887.85 680.308 892.588 668.528L929.212 584C935.379 569.692 929.526 553.211 915.547 545.523L849.704 508.45C856.316 468.89 856.522 428.586 850.314 388.97L916.487 353.31C930.442 345.622 936.347 329.203 930.311 314.872L893.942 230.188C888.952 218.442 877.131 211.152 864.486 211.152C861.667 211.152 858.81 211.514 855.975 212.269L782.278 230.934C757.764 198.299 728.155 169.502 694.499 145.559L713.478 75.7378C717.754 60.7872 709.854 45.1071 695.004 39.0725L607.736 3.87652C603.751 2.28985 599.602 1.53114 595.511 1.53114C584.331 1.53114 573.576 7.18717 567.72 17.0298L529.147 80.3578C507.968 77.0898 486.578 75.4565 465.191 75.4565C445.038 75.4552 424.887 76.9058 404.898 79.8085L367.215 16.1885C361.336 6.31786 350.543 0.63783 339.314 0.63783ZM339.314 15.9578C345.44 15.9578 351.088 19.0498 354.034 23.9952L391.716 87.6165L396.946 96.4445L407.099 94.9699C426.266 92.1872 445.811 90.7765 465.191 90.7765C485.768 90.7765 506.5 92.3658 526.811 95.4992L536.914 97.0565L542.231 88.3272L580.804 24.9992L580.846 24.9311L580.886 24.8632C583.826 19.9205 589.43 16.8511 595.51 16.8511C597.767 16.8511 599.974 17.2752 602.007 18.0845L689.236 53.2645C696.884 56.3739 700.886 64.0525 698.748 71.5245L698.72 71.6218L698.694 71.7191L679.715 141.54L676.912 151.85L685.618 158.042C718.032 181.1 746.432 208.72 770.028 240.135L776.154 248.288L786.039 245.784L859.736 227.12L859.828 227.096L859.92 227.072C861.415 226.674 862.951 226.472 864.486 226.472C871.204 226.472 877.375 230.373 879.864 236.234L916.206 320.85C919.179 327.952 916.218 335.931 909.155 339.858L843.046 375.483L833.499 380.627L835.178 391.34C841.139 429.383 840.943 467.935 834.594 505.924L832.822 516.526L842.187 521.799L908.03 558.872L908.096 558.91L908.164 558.947C915.267 562.854 918.202 570.839 915.155 577.91L878.531 662.436L878.45 662.623L878.374 662.811C876.087 668.496 870.155 672.316 863.614 672.316C861.992 672.316 860.376 672.08 858.81 671.616L858.499 671.523L858.184 671.444L785.582 653.215L775.836 650.768L769.71 658.732C745.73 689.896 716.995 717.216 684.302 739.93L675.408 746.11L678.266 756.555L697.651 827.418L697.67 827.482L697.687 827.547C699.762 834.874 695.647 842.659 688.124 845.652L600.086 880.639C598.003 881.46 595.811 881.878 593.574 881.878C587.483 881.878 581.882 878.802 578.95 873.85L541.916 810.275L536.711 801.339L526.476 802.824C507.311 805.607 487.767 807.019 468.384 807.019C447.811 807.019 427.079 805.43 406.766 802.296L396.663 800.738L391.346 809.467L352.772 872.795L352.731 872.863L352.69 872.932C349.75 877.874 344.146 880.943 338.066 880.943C335.81 880.943 333.603 880.52 331.535 879.696L243.699 844.524C236.063 841.41 232.072 833.738 234.207 826.272L234.222 826.222L234.236 826.17L253.682 756.347L256.566 745.987L247.803 739.752C215.39 716.695 186.99 689.075 163.392 657.66L157.267 649.507L147.382 652.011L73.6857 670.675L73.6244 670.691L73.5644 670.706C72.0777 671.096 70.551 671.294 69.027 671.294C62.171 671.294 56.0977 667.471 53.5564 661.562L17.1844 576.87C14.1577 569.836 17.0057 561.855 23.9537 557.855L90.0017 521.666L99.4417 516.494L97.775 505.859C91.8137 467.815 92.0097 429.264 98.359 391.275L100.131 380.674L90.7657 375.4L24.9217 338.327L24.855 338.29L24.7884 338.252C17.6857 334.347 14.751 326.36 17.7817 319.327L54.4177 235.377C56.979 229.483 63.0524 225.675 69.8884 225.675C71.4484 225.675 73.0097 225.882 74.5284 226.29L74.607 226.311L74.6857 226.331L147.288 245.009L157.082 247.527L163.247 239.514C187.227 208.348 215.963 181.03 248.656 158.315L257.55 152.137L254.691 141.691L235.306 70.8285L235.288 70.7632L235.27 70.6978C233.195 63.3711 237.31 55.5859 244.895 52.5672L332.875 17.1565C334.938 16.3605 337.104 15.9578 339.314 15.9578Z" fill="black"/>
<path d="M671.565 129.605L333.107 484.072L287.725 489.657L241.131 488.051L671.565 129.605Z" fill="#7FCAF9"/>
<path d="M653.27 486.359L305.664 77.0069L573.229 486.359H653.27Z" fill="#58A7EB"/>
<path d="M649.235 484.838C649.235 484.838 670.122 488.051 668.515 497.691C666.908 507.331 655.662 508.939 644.415 505.724C633.168 502.511 626.742 499.298 612.28 500.904C597.82 502.511 593 510.546 581.754 504.118C570.506 497.691 565.686 478.411 565.686 478.411L649.235 484.838Z" fill="#58A7EB"/>
<path d="M390.279 484.072L486.328 163.908L282.795 484.072H390.279Z" fill="#4784DA"/>
<path d="M472.756 199.054L405.818 417.216L289.656 484.072L472.756 199.054Z" fill="#4784DA"/>
<path d="M241.13 488.051C241.13 488.051 231.49 491.264 253.983 497.691C276.478 504.118 297.365 497.691 305.398 497.691C313.433 497.691 323.073 500.904 353.599 500.904C384.127 500.904 396.522 479.006 396.522 479.006L340.846 484.072L292.545 480.018L281.298 488.051H241.13Z" fill="#4784DA"/>
<path d="M739.6 485.326C729.5 485.057 719.399 484.813 709.299 484.666C689.448 484.307 669.598 484.162 649.746 484.111C643.236 476.313 636.614 468.607 630.039 460.863L609.44 437.01C602.527 429.098 595.58 421.213 588.576 413.379C581.506 405.599 574.524 397.745 567.328 390.073C573.692 398.449 580.272 406.642 586.764 414.91C593.32 423.123 599.936 431.286 606.584 439.422L626.67 463.711C633.432 471.75 640.139 479.837 646.976 487.811L646.996 487.835C647.41 488.311 648.018 488.613 648.696 488.61C668.898 488.563 689.099 488.417 709.299 488.051C719.399 487.906 729.5 487.661 739.6 487.391C749.7 487.051 759.802 486.831 769.902 486.359C759.802 485.886 749.7 485.666 739.6 485.326Z" fill="black"/>
<path d="M395.294 482.976L442.966 328.853L444.898 322.562L453.951 315.292L500.08 387.013L562.458 483.493L395.294 482.976ZM364.354 381.806C357.836 387.262 351.311 392.709 344.786 398.156L388.955 329.486C401.286 310.266 413.64 291.061 425.996 271.856L433.943 284.182L442.431 297.38L434.29 323.874L364.354 381.806ZM370.551 179.556L316.234 96.8822C327.771 110.585 339.243 124.342 350.783 138.044L400.336 197.088L436.071 240.064C431.947 246.626 427.82 253.189 423.698 259.753L370.551 179.556ZM450.719 310.265L447.975 312.538L449.334 308.112L450.719 310.265ZM441.919 247.097L453.575 261.114L444.4 290.972L438.09 281.47L428.815 267.474C433.184 260.682 437.552 253.89 441.919 247.097ZM472.768 199.013L458.235 245.952L455.275 255.585L444.519 243.049C453.95 228.38 463.366 213.7 472.768 199.013ZM476.614 288.82C473.096 291.733 469.571 294.638 466.059 297.558L454.91 306.794L451.372 301.469L461.015 270.061L476.614 288.82ZM572.708 219.373L626.638 175.658L584.146 220.705L501.29 309.217L485.06 290.302C514.35 266.749 543.491 243.014 572.708 219.373ZM505.735 383.316L458.258 311.834L470.006 302.398C473.588 299.532 477.158 296.65 480.735 293.777L498.907 315.63C498.975 315.713 499.051 315.794 499.13 315.87C500.312 317.009 502.194 316.973 503.332 315.79L503.363 315.76L589.755 226.03L632.779 181.002L675.682 135.858C677.088 134.381 677.214 132.045 675.886 130.426C674.45 128.677 671.867 128.422 670.118 129.858L568.032 213.641C538.959 237.544 509.81 261.354 480.808 285.346L462.775 264.328L467.539 248.809L491.94 168.712L491.948 168.692C492.544 166.732 491.792 164.537 489.976 163.386C487.796 162.004 484.908 162.65 483.526 164.83C468.483 188.554 453.514 212.325 438.562 236.106L403.09 194.761L353.164 136.032C336.556 116.426 319.803 96.9436 303.315 77.2369C302.858 76.6983 302.054 76.5662 301.45 76.9649C300.798 77.3956 300.619 78.2729 301.05 78.9249L367.699 181.421L420.982 264.076C408.147 284.508 395.315 304.94 382.455 325.354L331.998 405.666L327.87 412.277C306.232 430.329 284.598 448.382 263.067 466.566C262.88 466.725 262.85 467.005 263.003 467.198C263.159 467.397 263.447 467.432 263.646 467.274C283.452 451.677 303.174 435.976 322.886 420.261L282.499 484.946L253.923 485.332L223.908 485.848C203.898 486.222 183.887 486.552 163.878 487.045C163.635 487.052 163.438 487.246 163.431 487.492C163.424 487.744 163.624 487.953 163.878 487.96C183.887 488.454 203.898 488.782 223.908 489.157L253.923 489.673L283.938 490.077C284.767 490.082 285.598 489.678 286.082 488.93L286.112 488.884L337.646 409.257L338.652 407.692C348.108 400.153 357.567 392.617 367.035 385.093L431.372 333.425L384.79 486.168L384.776 486.209C384.651 486.626 384.584 487.069 384.586 487.526C384.594 490.032 386.631 492.056 389.135 492.049L569.799 491.49H569.828C570.579 491.489 571.338 491.276 572.011 490.83C573.843 489.62 574.347 487.153 573.136 485.321L505.735 383.316Z" fill="black"/>
</svg>
