<svg width="1080" height="1080" viewBox="0 0 1080 1080" fill="none" xmlns="http://www.w3.org/2000/svg">
<rect width="1080" height="1080" fill="url(#paint0_linear_88_2)"/>
<path d="M885.478 27.9123C887.043 27.9123 888.485 28.7019 889.237 29.9648L898.86 46.2114L900.196 48.4658L902.788 48.0892C907.683 47.3786 912.674 47.018 917.623 47.0184C922.878 47.0184 928.172 47.4242 933.359 48.224L935.938 48.6221L937.296 46.3929L947.147 30.2212L947.157 30.2038L947.167 30.1864C947.918 28.9243 949.349 28.1405 950.902 28.1405C951.478 28.1405 952.042 28.2487 952.561 28.4554L974.836 37.4391C976.789 38.2331 977.811 40.194 977.265 42.1021L977.258 42.1269L977.251 42.1518L972.405 59.9817L971.689 62.6143L973.912 64.1955C982.19 70.0839 989.442 77.1371 995.468 85.1589L997.032 87.2413L999.556 86.6019L1018.38 81.8358L1018.4 81.8297L1018.42 81.8235C1018.8 81.7217 1019.2 81.6703 1019.59 81.6703C1021.3 81.6703 1022.88 82.6662 1023.52 84.163L1032.8 105.771C1033.56 107.585 1032.8 109.622 1031 110.625L1014.11 119.722L1011.68 121.036L1012.1 123.772C1013.63 133.487 1013.58 143.331 1011.96 153.032L1011.5 155.74L1013.89 157.086L1030.71 166.553L1030.73 166.563L1030.74 166.573C1032.56 167.57 1033.31 169.609 1032.53 171.415L1023.18 193L1023.15 193.048L1023.14 193.096C1022.55 194.548 1021.04 195.523 1019.37 195.523C1018.95 195.523 1018.54 195.463 1018.14 195.344L1018.06 195.32L1017.98 195.3L999.439 190.645L996.951 190.02L995.386 192.054C989.263 200.012 981.925 206.989 973.576 212.789L971.305 214.367L972.035 217.035L976.985 235.13L976.99 235.147L976.994 235.163C977.524 237.034 976.473 239.023 974.552 239.787L952.07 248.721C951.539 248.931 950.979 249.038 950.407 249.038C948.852 249.038 947.422 248.252 946.673 246.987L937.216 230.752L935.887 228.471L933.273 228.85C928.379 229.561 923.388 229.921 918.438 229.921C913.185 229.921 907.891 229.515 902.703 228.715L900.123 228.317L898.766 230.546L888.915 246.718L888.905 246.736L888.894 246.753C888.143 248.015 886.712 248.799 885.16 248.799C884.584 248.799 884.02 248.691 883.492 248.481L861.062 239.499C859.112 238.704 858.093 236.744 858.638 234.838L858.642 234.825L858.645 234.812L863.611 216.982L864.348 214.336L862.11 212.744C853.833 206.856 846.58 199.803 840.554 191.78L838.99 189.698L836.466 190.338L817.646 195.104L817.631 195.108L817.615 195.112C817.236 195.211 816.846 195.262 816.457 195.262C814.706 195.262 813.155 194.286 812.506 192.777L803.218 171.149C802.445 169.353 803.172 167.315 804.947 166.294L821.813 157.052L824.224 155.731L823.798 153.016C822.276 143.301 822.326 133.456 823.947 123.755L824.4 121.048L822.008 119.701L805.194 110.234L805.177 110.224L805.16 110.215C803.346 109.217 802.597 107.178 803.371 105.382L812.726 83.9441C813.38 82.4391 814.931 81.4667 816.677 81.4667C817.075 81.4667 817.474 81.5195 817.862 81.6237L817.882 81.6291L817.902 81.6342L836.442 86.4034L838.943 87.0469L840.517 85.0006C846.641 77.0421 853.979 70.0659 862.328 64.2654L864.599 62.6872L863.869 60.0202L858.918 41.9244L858.914 41.9077L858.909 41.891C858.379 40.02 859.43 38.0319 861.367 37.2611L883.834 28.2184C884.361 28.0152 884.914 27.9123 885.478 27.9123Z" fill="white"/>
<path d="M837.572 175.175H838.184C839.274 175.175 839.666 174.565 839.666 173.256V158.381C839.666 156.854 839.099 156.505 838.14 156.505H837.572V175.175ZM830.637 151.314H838.227C843.942 151.314 846.69 153.539 846.69 160.3V170.988C846.69 177.051 845.119 180.366 839.23 180.366H830.637V151.314Z" fill="#4784DA"/>
<path d="M857.989 165.884V163.485C857.989 162.307 857.858 161.609 856.986 161.609C856.288 161.609 855.982 162.264 855.982 163.485V165.884H857.989ZM855.982 170.203V173.78C855.982 175.001 856.244 175.481 856.942 175.481C857.683 175.481 858.033 175.088 858.033 173.649V172.34H864.707V173.082C864.707 177.575 862.918 180.759 856.768 180.759C851.14 180.759 848.959 178.055 848.959 173.082V164.139C848.959 158.948 852.231 156.505 856.898 156.505C861.479 156.505 864.75 158.686 864.75 164.139V170.203H855.982Z" fill="#4784DA"/>
<path d="M873.17 156.854C873.606 162.045 874.043 170.333 874.217 173.3H874.479C874.741 169.592 875.308 162.612 875.831 156.854H882.723L879.015 180.366H869.506L865.711 156.854H873.17Z" fill="#4784DA"/>
<path d="M891.491 158.076V173.605C891.491 174.696 891.797 175.35 892.538 175.35C893.192 175.35 893.585 174.783 893.585 173.605V158.032C893.585 156.723 893.28 156.331 892.495 156.331C891.84 156.331 891.491 156.767 891.491 158.076ZM900.608 158.905V172.776C900.608 178.666 897.38 180.803 892.32 180.803C887.434 180.803 884.556 178.491 884.556 172.776V158.555C884.556 153.19 887.871 150.878 892.495 150.878C897.119 150.878 900.608 153.234 900.608 158.905Z" fill="#4784DA"/>
<path d="M912.082 173.169V163.921C912.082 162.874 911.777 162.22 911.079 162.22C910.25 162.22 909.988 162.918 909.988 164.314V172.864C909.988 174.172 910.206 174.957 910.992 174.957C911.558 174.957 912.082 174.652 912.082 173.169ZM909.988 178.797V187.608H903.053V163.616C903.053 160.475 903.009 157.639 902.965 156.854H909.683C909.726 157.334 909.857 158.207 909.901 159.035C910.556 157.814 911.995 156.505 914.394 156.505C917.622 156.505 919.018 158.468 919.018 162.569V173.955C919.018 177.575 918.059 180.759 913.609 180.759C912.867 180.759 910.948 180.541 909.988 178.797Z" fill="#4784DA"/>
<path d="M927.002 172.471V173.605C927.002 175.045 927.264 175.786 928.005 175.786C928.441 175.786 928.791 175.437 928.791 174.434C928.791 173.213 928.572 172.601 925.999 170.988C922.029 168.501 920.938 166.843 920.938 163.397C920.938 158.773 923.469 156.505 928.179 156.505C934.723 156.505 935.377 160.257 935.377 163.266V164.444H929.357V163.136C929.357 161.74 929.183 161.26 928.485 161.26C927.918 161.26 927.613 161.653 927.613 162.7C927.613 163.659 928.223 164.226 930.143 165.361C934.592 168.021 935.726 170.29 935.726 173.169C935.726 177.836 934.243 180.759 928.179 180.759C921.2 180.759 920.808 176.441 920.808 173.038V172.471H927.002Z" fill="#4784DA"/>
<path d="M996.639 172.471V173.605C996.639 175.045 996.901 175.786 997.643 175.786C998.079 175.786 998.428 175.437 998.428 174.434C998.428 173.213 998.21 172.601 995.636 170.988C991.667 168.501 990.576 166.843 990.576 163.397C990.576 158.773 993.106 156.505 997.817 156.505C1004.36 156.505 1005.02 160.257 1005.02 163.266V164.444H998.995V163.136C998.995 161.74 998.821 161.26 998.123 161.26C997.556 161.26 997.251 161.653 997.251 162.7C997.251 163.659 997.861 164.226 999.78 165.361C1004.23 168.021 1005.36 170.29 1005.36 173.169C1005.36 177.836 1003.88 180.759 997.817 180.759C990.838 180.759 990.445 176.441 990.445 173.038V172.471H996.639Z" fill="#58A7EB"/>
<path d="M944.582 175.175H945.193C946.284 175.175 946.676 174.565 946.676 173.256V158.381C946.676 156.854 946.109 156.505 945.149 156.505H944.582V175.175ZM937.646 151.314H945.237C950.951 151.314 953.699 153.539 953.699 160.3V170.988C953.699 177.051 952.129 180.366 946.24 180.366H937.646V151.314Z" fill="#58A7EB"/>
<path d="M964.648 170.028H964.343C963.209 170.028 962.555 170.813 962.555 172.646V172.82C962.555 174.608 962.991 175.088 963.645 175.088C964.387 175.088 964.648 174.434 964.648 173.256V170.028ZM971.672 174.347C971.672 177.618 971.759 179.189 971.89 180.366H965.26C965.041 180.017 964.91 178.97 964.867 178.534C963.82 180.192 962.249 180.672 960.636 180.672C957.014 180.672 955.619 177.444 955.619 173.736V173.256C955.619 167.062 959.719 165.622 964.3 165.622H964.648V163.005C964.648 161.74 964.343 161.434 963.733 161.434C963.122 161.434 962.816 161.827 962.816 163.223V164.183H956.317V163.572C956.317 158.337 959.152 156.505 964.082 156.505C968.706 156.505 971.672 158.207 971.672 162.7V174.347Z" fill="#58A7EB"/>
<path d="M980.266 156.854C980.659 160.737 981.443 168.807 981.531 171.642H981.88C982.055 168.458 982.447 162.874 982.97 156.854H990.255C989.339 160.475 987.812 169.592 985.544 179.669C984.497 184.336 984.235 187.739 977.954 187.739C976.601 187.739 975.554 187.652 974.639 187.521V181.894C975.118 181.937 975.424 181.981 975.816 181.981C976.994 181.981 977.779 181.763 977.867 181.195L972.719 156.854H980.266Z" fill="#58A7EB"/>
<path d="M935.311 196.355V202.938L931.066 196.225C931.022 196.155 930.944 196.112 930.861 196.112H928.842C928.708 196.112 928.599 196.221 928.599 196.355V207.106C928.599 207.24 928.708 207.349 928.842 207.349H930.752C930.886 207.349 930.995 207.24 930.995 207.106V200.574L935.22 207.236C935.264 207.306 935.342 207.349 935.425 207.349H937.464C937.598 207.349 937.707 207.24 937.707 207.106V196.355C937.707 196.221 937.598 196.112 937.464 196.112H935.555C935.42 196.112 935.311 196.221 935.311 196.355Z" fill="black"/>
<path d="M910.041 207.352H911.927C912.061 207.352 912.17 207.243 912.17 207.108V196.34C912.17 196.206 912.061 196.097 911.927 196.097H910.041C909.907 196.097 909.798 196.206 909.798 196.34V207.108C909.798 207.243 909.907 207.352 910.041 207.352Z" fill="black"/>
<path d="M918.097 207.172L920.384 199.258L922.67 207.172C922.7 207.277 922.795 207.348 922.904 207.348H924.867C925.029 207.348 925.145 207.193 925.1 207.037L921.99 196.27C921.96 196.166 921.864 196.094 921.756 196.094H919.011C918.903 196.094 918.808 196.166 918.777 196.27L915.667 207.037C915.622 207.193 915.738 207.348 915.901 207.348H917.863C917.972 207.348 918.067 207.277 918.097 207.172Z" fill="black"/>
<path d="M941.406 207.352H943.292C943.426 207.352 943.535 207.243 943.535 207.109V196.341C943.535 196.206 943.426 196.097 943.292 196.097H941.406C941.271 196.097 941.162 196.206 941.162 196.341V207.109C941.162 207.243 941.271 207.352 941.406 207.352Z" fill="black"/>
<path d="M949.523 207.172L951.809 199.258L954.095 207.172C954.126 207.277 954.221 207.348 954.329 207.348H956.292C956.454 207.348 956.571 207.193 956.526 207.037L953.416 196.27C953.386 196.166 953.29 196.094 953.182 196.094H950.437C950.329 196.094 950.233 196.166 950.203 196.27L947.093 207.037C947.048 207.193 947.165 207.348 947.326 207.348H949.289C949.398 207.348 949.493 207.277 949.523 207.172Z" fill="black"/>
<path d="M885.097 200.535V202.421C885.097 202.555 885.206 202.664 885.34 202.664H888.559C888.062 204.154 886.632 205.217 884.961 205.156C883.077 205.088 881.538 203.566 881.451 201.682C881.354 199.587 883.023 197.859 885.097 197.859C886.021 197.859 886.865 198.202 887.509 198.769C887.606 198.855 887.752 198.853 887.844 198.761L889.179 197.426C889.277 197.328 889.274 197.169 889.173 197.075C888.073 196.063 886.596 195.456 884.977 195.487C881.778 195.55 879.163 198.143 879.077 201.341C878.984 204.748 881.722 207.538 885.11 207.531C888.443 207.524 891.119 204.769 891.119 201.436V200.292H885.34C885.206 200.292 885.097 200.401 885.097 200.535Z" fill="black"/>
<path d="M903.964 202.028L904.392 202.276C904.504 202.34 904.558 202.472 904.525 202.597C904.476 202.776 904.415 202.952 904.343 203.124C904.278 203.277 904.204 203.426 904.122 203.569C904.057 203.682 903.925 203.737 903.8 203.704L903.322 203.576C903.224 203.549 903.119 203.578 903.047 203.65L902.661 204.036C902.589 204.108 902.561 204.213 902.587 204.311L902.715 204.788C902.748 204.914 902.693 205.046 902.581 205.111C902.437 205.193 902.288 205.266 902.135 205.331C901.963 205.404 901.787 205.465 901.608 205.513C901.484 205.547 901.351 205.492 901.287 205.381L901.04 204.952C900.988 204.864 900.894 204.81 900.792 204.81H900.247C900.145 204.81 900.051 204.864 900 204.952L899.752 205.381C899.687 205.492 899.556 205.547 899.431 205.513C899.252 205.465 899.076 205.404 898.904 205.331C898.751 205.266 898.602 205.193 898.459 205.111C898.346 205.046 898.29 204.914 898.324 204.788L898.452 204.311C898.478 204.213 898.45 204.108 898.378 204.036L897.992 203.65C897.92 203.578 897.815 203.549 897.717 203.576L897.239 203.704C897.114 203.737 896.982 203.682 896.917 203.569C896.835 203.426 896.762 203.277 896.697 203.124C896.624 202.952 896.563 202.776 896.514 202.597C896.48 202.472 896.535 202.34 896.647 202.276L897.076 202.028C897.164 201.977 897.218 201.883 897.218 201.781V201.236C897.218 201.133 897.164 201.039 897.076 200.988L896.647 200.741C896.535 200.676 896.48 200.544 896.514 200.42C896.563 200.241 896.624 200.065 896.697 199.893C896.762 199.739 896.835 199.591 896.917 199.447C896.982 199.335 897.114 199.279 897.239 199.313L897.717 199.44C897.815 199.467 897.92 199.439 897.992 199.367L898.378 198.981C898.45 198.909 898.478 198.804 898.452 198.705L898.324 198.228C898.29 198.102 898.346 197.97 898.459 197.906C898.602 197.824 898.751 197.75 898.904 197.685C899.076 197.612 899.252 197.552 899.431 197.503C899.556 197.469 899.687 197.524 899.752 197.636L900 198.064C900.051 198.152 900.145 198.207 900.247 198.207H900.792C900.894 198.207 900.988 198.152 901.04 198.064L901.287 197.636C901.351 197.524 901.484 197.469 901.608 197.503C901.787 197.552 901.963 197.612 902.135 197.685C902.288 197.75 902.437 197.824 902.581 197.906C902.693 197.97 902.748 198.102 902.715 198.228L902.587 198.705C902.561 198.804 902.589 198.909 902.661 198.981L903.047 199.367C903.119 199.439 903.224 199.467 903.322 199.44L903.8 199.313C903.925 199.279 904.057 199.335 904.122 199.447C904.204 199.591 904.278 199.739 904.343 199.893C904.415 200.065 904.476 200.241 904.525 200.42C904.558 200.544 904.504 200.676 904.392 200.741L903.964 200.988C903.875 201.039 903.821 201.133 903.821 201.236V201.781C903.821 201.883 903.875 201.977 903.964 202.028ZM900.52 195.486C897.193 195.486 894.497 198.182 894.497 201.508C894.497 204.834 897.193 207.531 900.52 207.531C903.846 207.531 906.542 204.834 906.542 201.508C906.542 198.182 903.846 195.486 900.52 195.486Z" fill="black"/>
<path d="M922.387 195.834L922.977 194.391C923.028 194.267 922.968 194.125 922.844 194.074L921.502 193.478H919.267L917.926 194.074C917.802 194.125 917.742 194.267 917.792 194.391L918.383 195.834C918.434 195.958 918.576 196.018 918.7 195.967L919.733 195.546H921.037L922.07 195.967C922.194 196.018 922.336 195.958 922.387 195.834Z" fill="black"/>
<path d="M885.479 24.0001C884.448 24.0001 883.404 24.1874 882.397 24.5796L859.907 33.6318C856.105 35.1445 854.065 39.1395 855.145 42.9566L860.096 61.0525C851.427 67.0746 843.778 74.3478 837.417 82.6148L818.877 77.8452C818.145 77.6488 817.406 77.5545 816.677 77.5545C813.453 77.5545 810.436 79.3995 809.138 82.3846L799.785 103.817C798.211 107.471 799.706 111.68 803.275 113.643L820.089 123.11C818.4 133.212 818.348 143.505 819.933 153.621L803.036 162.88C799.517 164.88 798.062 169.064 799.624 172.695L808.912 194.32C810.2 197.316 813.223 199.174 816.457 199.174C817.169 199.174 817.891 199.084 818.607 198.897L837.427 194.13C843.687 202.464 851.248 209.818 859.843 215.932L854.877 233.762C853.785 237.58 855.802 241.584 859.594 243.125L882.038 252.112C883.056 252.518 884.115 252.711 885.16 252.711C888.015 252.711 890.761 251.267 892.257 248.754L902.107 232.582C907.515 233.416 912.977 233.833 918.439 233.833C923.586 233.833 928.731 233.463 933.836 232.722L943.3 248.969C944.79 251.495 947.543 252.95 950.408 252.95C951.445 252.95 952.495 252.759 953.506 252.361L975.998 243.423C979.8 241.91 981.839 237.915 980.759 234.098L975.809 216.002C984.477 209.98 992.126 202.707 998.487 194.44L1017.03 199.095C1017.8 199.325 1018.59 199.435 1019.37 199.435C1022.56 199.435 1025.56 197.564 1026.77 194.556L1036.12 172.97C1037.69 169.316 1036.2 165.108 1032.63 163.144L1015.81 153.677C1017.5 143.575 1017.56 133.283 1015.97 123.166L1032.87 114.06C1036.43 112.097 1037.94 107.904 1036.4 104.244L1027.11 82.6192C1025.84 79.6195 1022.82 77.7581 1019.59 77.7581C1018.87 77.7581 1018.14 77.8503 1017.42 78.0431L998.596 82.8095C992.336 74.4758 984.775 67.122 976.181 61.0078L981.027 43.178C982.119 39.3601 980.102 35.356 976.31 33.8149L954.024 24.8271C953.007 24.422 951.947 24.2282 950.902 24.2282C948.048 24.2282 945.301 25.6726 943.806 28.186L933.955 44.3577C928.547 43.5232 923.085 43.1061 917.623 43.1061C912.477 43.1058 907.331 43.4762 902.227 44.2175L892.604 27.9712C891.103 25.4506 888.346 24.0001 885.479 24.0001ZM885.479 27.9123C887.043 27.9123 888.486 28.7019 889.238 29.9647L898.861 46.2114L900.196 48.4657L902.789 48.0891C907.683 47.3785 912.674 47.0183 917.623 47.0183C922.878 47.0183 928.172 47.4242 933.359 48.2243L935.939 48.622L937.297 46.3928L947.147 30.2211L947.157 30.2037L947.168 30.1864C947.918 28.9242 949.35 28.1404 950.902 28.1404C951.479 28.1404 952.042 28.2487 952.561 28.4554L974.837 37.4391C976.79 38.2331 977.811 40.1939 977.266 42.102L977.258 42.1269L977.252 42.1517L972.405 59.9816L971.689 62.6143L973.913 64.1955C982.19 70.0838 989.442 77.137 995.468 85.1592L997.032 87.2413L999.557 86.6018L1018.38 81.8357L1018.4 81.8296L1018.42 81.8235C1018.8 81.7217 1019.2 81.6703 1019.59 81.6703C1021.3 81.6703 1022.88 82.6662 1023.52 84.163L1032.8 105.771C1033.56 107.585 1032.8 109.622 1031 110.625L1014.11 119.722L1011.68 121.036L1012.1 123.772C1013.63 133.486 1013.58 143.331 1011.96 153.032L1011.5 155.74L1013.89 157.086L1030.71 166.553L1030.73 166.563L1030.74 166.572C1032.56 167.57 1033.31 169.609 1032.53 171.415L1023.18 193L1023.15 193.048L1023.14 193.096C1022.55 194.548 1021.04 195.523 1019.37 195.523C1018.95 195.523 1018.54 195.463 1018.14 195.344L1018.06 195.32L1017.98 195.3L999.44 190.645L996.951 190.02L995.387 192.054C989.263 200.012 981.925 206.989 973.576 212.789L971.305 214.367L972.035 217.035L976.985 235.13L976.99 235.147L976.995 235.163C977.524 237.034 976.474 239.022 974.553 239.787L952.071 248.721C951.539 248.931 950.979 249.038 950.408 249.038C948.852 249.038 947.422 248.252 946.673 246.987L937.216 230.753L935.887 228.471L933.273 228.85C928.379 229.561 923.388 229.921 918.439 229.921C913.185 229.921 907.891 229.515 902.704 228.715L900.124 228.317L898.766 230.546L888.916 246.718L888.905 246.736L888.895 246.753C888.144 248.015 886.713 248.799 885.16 248.799C884.584 248.799 884.02 248.691 883.492 248.48L861.062 239.499C859.112 238.703 858.093 236.744 858.638 234.838L858.642 234.825L858.646 234.812L863.611 216.981L864.348 214.336L862.11 212.744C853.833 206.856 846.581 199.803 840.555 191.78L838.991 189.698L836.466 190.338L817.647 195.104L817.631 195.108L817.616 195.112C817.236 195.211 816.846 195.262 816.457 195.262C814.706 195.262 813.155 194.286 812.506 192.777L803.218 171.149C802.445 169.353 803.173 167.315 804.947 166.294L821.813 157.052L824.224 155.731L823.798 153.016C822.276 143.301 822.326 133.456 823.947 123.755L824.4 121.048L822.008 119.701L805.194 110.234L805.177 110.224L805.16 110.215C803.346 109.218 802.597 107.178 803.371 105.382L812.726 83.944C813.381 82.4391 814.931 81.4666 816.677 81.4666C817.075 81.4666 817.474 81.5194 817.862 81.6236L817.882 81.6291L817.902 81.6342L836.442 86.4037L838.943 87.0469L840.518 85.0005C846.641 77.042 853.979 70.0658 862.328 64.2653L864.599 62.6875L863.869 60.0201L858.919 41.9243L858.914 41.9076L858.91 41.8909C858.38 40.0199 859.431 38.0319 861.368 37.261L883.835 28.2184C884.361 28.0151 884.915 27.9123 885.479 27.9123Z" fill="black"/>
<path d="M970.324 56.9339L883.894 147.452L872.305 148.878L860.406 148.468L970.324 56.9339Z" fill="#7FCAF9"/>
<path d="M965.652 148.036L876.886 43.5021L945.212 148.036H965.652Z" fill="#58A7EB"/>
<path d="M964.622 147.647C964.622 147.647 969.955 148.468 969.545 150.93C969.135 153.391 966.263 153.802 963.391 152.981C960.519 152.16 958.878 151.34 955.185 151.75C951.492 152.16 950.261 154.212 947.389 152.571C944.517 150.93 943.286 146.006 943.286 146.006L964.622 147.647Z" fill="#58A7EB"/>
<path d="M898.494 147.452L923.021 65.6936L871.046 147.452H898.494Z" fill="#4784DA"/>
<path d="M919.555 74.6685L902.461 130.379L872.798 147.452L919.555 74.6685Z" fill="#4784DA"/>
<path d="M860.406 148.468C860.406 148.468 857.945 149.289 863.689 150.93C869.433 152.571 874.767 150.93 876.818 150.93C878.87 150.93 881.331 151.75 889.127 151.75C896.923 151.75 900.088 146.158 900.088 146.158L885.87 147.452L873.536 146.417L870.664 148.468H860.406Z" fill="#4784DA"/>
<path d="M987.697 147.772C985.118 147.703 982.539 147.641 979.959 147.604C974.89 147.512 969.821 147.475 964.752 147.462C963.089 145.471 961.398 143.503 959.719 141.525L954.459 135.434C952.694 133.414 950.92 131.4 949.131 129.4C947.325 127.413 945.543 125.407 943.705 123.448C945.33 125.587 947.011 127.679 948.668 129.79C950.343 131.888 952.032 133.972 953.73 136.05L958.859 142.253C960.586 144.305 962.298 146.37 964.044 148.407L964.049 148.413C964.155 148.535 964.31 148.612 964.484 148.611C969.642 148.599 974.801 148.561 979.959 148.468C982.539 148.431 985.118 148.368 987.697 148.3C990.276 148.213 992.856 148.157 995.435 148.036C992.856 147.915 990.276 147.859 987.697 147.772Z" fill="black"/>
<path d="M899.774 147.172L911.948 107.814L912.441 106.208L914.753 104.351L926.533 122.666L942.462 147.304L899.774 147.172ZM891.873 121.337C890.209 122.73 888.542 124.121 886.876 125.512L898.155 107.976C901.304 103.068 904.459 98.1636 907.614 93.2592L909.644 96.407L911.811 99.7771L909.732 106.543L891.873 121.337ZM893.456 69.689L879.585 48.5772C882.531 52.0764 885.461 55.5895 888.408 59.0883L901.062 74.1661L910.187 85.1406C909.134 86.8165 908.08 88.4924 907.027 90.1686L893.456 69.689ZM913.928 103.068L913.227 103.648L913.574 102.518L913.928 103.068ZM911.68 86.9367L914.657 90.5162L912.314 98.1407L910.703 95.7144L908.334 92.1404C909.45 90.4059 910.565 88.6715 911.68 86.9367ZM919.558 74.6578L915.847 86.6442L915.091 89.1042L912.344 85.903C914.753 82.157 917.157 78.4082 919.558 74.6578ZM920.54 97.5912C919.642 98.3352 918.742 99.0771 917.845 99.8227L914.998 102.181L914.094 100.821L916.557 92.8009L920.54 97.5912ZM945.079 79.857L958.851 68.6938L948 80.1971L926.842 102.8L922.697 97.9698C930.177 91.9551 937.618 85.8941 945.079 79.857ZM927.977 121.722L915.853 103.468L918.853 101.059C919.768 100.327 920.679 99.5909 921.593 98.8571L926.233 104.438C926.251 104.459 926.27 104.48 926.29 104.499C926.592 104.79 927.072 104.781 927.363 104.479L927.371 104.471L949.433 81.557L960.419 70.0585L971.375 58.5303C971.734 58.153 971.766 57.5565 971.427 57.1432C971.061 56.6964 970.401 56.6314 969.954 56.9981L943.885 78.3932C936.461 84.4971 929.017 90.5775 921.611 96.7042L917.006 91.3368L918.223 87.3739L924.454 66.9199L924.456 66.9148C924.608 66.4143 924.416 65.8538 923.953 65.56C923.396 65.2069 922.658 65.372 922.305 65.9287C918.464 71.987 914.641 78.0572 910.823 84.1301L901.765 73.5719L889.016 58.5745C884.775 53.568 880.496 48.5929 876.286 43.5605C876.169 43.4229 875.964 43.3892 875.81 43.491C875.643 43.601 875.597 43.825 875.707 43.9915L892.727 70.1654L906.334 91.2725C903.056 96.4901 899.779 101.708 896.495 106.921L883.61 127.43L882.556 129.118C877.031 133.728 871.506 138.338 866.008 142.981C865.96 143.022 865.952 143.093 865.992 143.143C866.031 143.194 866.105 143.202 866.156 143.162C871.214 139.179 876.25 135.17 881.284 131.157L870.97 147.675L863.673 147.773L856.008 147.905C850.898 148.001 845.788 148.085 840.679 148.211C840.617 148.213 840.566 148.262 840.564 148.325C840.563 148.389 840.614 148.443 840.679 148.444C845.788 148.571 850.898 148.655 856.008 148.75L863.673 148.882L871.338 148.985C871.549 148.987 871.762 148.883 871.885 148.692L871.893 148.68L885.053 128.347L885.31 127.947C887.725 126.022 890.14 124.097 892.558 122.176L908.987 108.982L897.092 147.987L897.088 147.997C897.056 148.104 897.039 148.217 897.04 148.334C897.042 148.974 897.562 149.49 898.201 149.489L944.336 149.346H944.344C944.536 149.346 944.729 149.291 944.901 149.178C945.369 148.868 945.498 148.239 945.189 147.771L927.977 121.722Z" fill="black"/>
<path d="M401.251 519V483.896H389.315V474.2H423.875V483.896H411.939V519H401.251ZM440.954 519.96C437.37 519.96 434.224 519.245 431.514 517.816C428.805 516.365 426.693 514.349 425.178 511.768C423.664 509.165 422.906 506.125 422.906 502.648C422.906 500.131 423.344 497.816 424.218 495.704C425.114 493.592 426.352 491.768 427.93 490.232C429.53 488.696 431.408 487.512 433.562 486.68C435.738 485.827 438.128 485.4 440.73 485.4C443.589 485.4 446.138 485.912 448.378 486.936C450.618 487.939 452.464 489.347 453.914 491.16C455.386 492.952 456.4 495.075 456.954 497.528C457.509 499.96 457.53 502.605 457.018 505.464H432.506C432.528 506.744 432.912 507.864 433.658 508.824C434.405 509.784 435.429 510.541 436.73 511.096C438.032 511.629 439.546 511.896 441.274 511.896C443.194 511.896 445.018 511.651 446.746 511.16C448.474 510.648 450.128 509.869 451.706 508.824L455.002 515.928C454 516.696 452.698 517.389 451.098 518.008C449.52 518.605 447.834 519.075 446.042 519.416C444.272 519.779 442.576 519.96 440.954 519.96ZM433.146 498.392H447.034C446.992 496.749 446.384 495.437 445.21 494.456C444.037 493.475 442.448 492.984 440.442 492.984C438.416 492.984 436.73 493.475 435.386 494.456C434.064 495.437 433.317 496.749 433.146 498.392ZM458.648 519.096L470.392 502.904L459.256 486.36H472.504L477.72 495.704L482.808 486.36H495.768L484.952 502.712L496.568 519H483.128L477.368 509.784L471.544 518.904L458.648 519.096ZM515.336 519.96C511.71 519.96 508.862 518.947 506.792 516.92C504.723 514.872 503.688 511.821 503.688 507.768V477.016H514.184V486.36H521.832V494.68H514.184V505.944C514.184 507.693 514.568 508.92 515.336 509.624C516.104 510.328 517.096 510.68 518.312 510.68C518.974 510.68 519.624 510.605 520.264 510.456C520.926 510.285 521.534 510.04 522.088 509.72L523.432 517.944C522.43 518.499 521.224 518.968 519.816 519.352C518.408 519.757 516.915 519.96 515.336 519.96ZM497.352 494.68V486.36H504.648V494.68H497.352ZM544.6 519.96C541.037 519.96 537.89 519.181 535.16 517.624C532.429 516.045 530.285 513.944 528.728 511.32C527.192 508.696 526.424 505.816 526.424 502.68C526.424 500.397 526.861 498.221 527.736 496.152C528.632 494.061 529.89 492.216 531.512 490.616C533.133 488.995 535.053 487.725 537.272 486.808C539.49 485.869 541.933 485.4 544.6 485.4C548.162 485.4 551.309 486.189 554.04 487.768C556.77 489.325 558.904 491.416 560.44 494.04C561.976 496.664 562.744 499.544 562.744 502.68C562.744 504.963 562.306 507.149 561.432 509.24C560.557 511.309 559.309 513.144 557.688 514.744C556.066 516.344 554.146 517.613 551.928 518.552C549.709 519.491 547.266 519.96 544.6 519.96ZM544.6 510.936C546.093 510.936 547.437 510.605 548.632 509.944C549.826 509.261 550.765 508.301 551.448 507.064C552.13 505.827 552.472 504.365 552.472 502.68C552.472 500.973 552.13 499.512 551.448 498.296C550.786 497.059 549.858 496.109 548.664 495.448C547.469 494.765 546.114 494.424 544.6 494.424C543.085 494.424 541.73 494.765 540.536 495.448C539.341 496.109 538.402 497.059 537.72 498.296C537.037 499.512 536.696 500.973 536.696 502.68C536.696 504.365 537.037 505.827 537.72 507.064C538.424 508.301 539.373 509.261 540.568 509.944C541.762 510.605 543.106 510.936 544.6 510.936ZM591.545 519.96C589.369 519.96 587.417 519.544 585.689 518.712C583.961 517.859 582.595 516.653 581.593 515.096C580.59 513.517 580.089 511.629 580.089 509.432C580.089 507.555 580.547 505.891 581.465 504.44C582.403 502.989 583.811 501.795 585.689 500.856C587.566 499.917 589.923 499.288 592.761 498.968C595.619 498.627 598.958 498.627 602.777 498.968L602.873 505.496C600.846 505.133 599.011 504.952 597.369 504.952C595.747 504.931 594.361 505.069 593.209 505.368C592.078 505.645 591.203 506.083 590.585 506.68C589.966 507.277 589.657 508.013 589.657 508.888C589.657 510.019 590.083 510.883 590.937 511.48C591.811 512.077 592.974 512.376 594.425 512.376C595.683 512.376 596.814 512.152 597.817 511.704C598.841 511.256 599.651 510.605 600.249 509.752C600.867 508.877 601.177 507.811 601.177 506.552V499.096C601.177 497.923 600.931 496.888 600.441 495.992C599.95 495.096 599.171 494.403 598.105 493.912C597.059 493.4 595.662 493.144 593.913 493.144C592.227 493.144 590.553 493.4 588.889 493.912C587.225 494.403 585.731 495.149 584.409 496.152L581.721 488.952C583.833 487.629 586.094 486.659 588.505 486.04C590.915 485.4 593.283 485.08 595.609 485.08C598.681 485.08 601.379 485.571 603.705 486.552C606.051 487.533 607.886 489.048 609.209 491.096C610.531 493.144 611.193 495.768 611.193 498.968V519H602.137V515.544C601.091 516.952 599.651 518.04 597.817 518.808C595.982 519.576 593.891 519.96 591.545 519.96ZM642.302 532.44V511.672L644.67 514.072C643.176 516.013 641.427 517.485 639.422 518.488C637.416 519.469 635.166 519.96 632.67 519.96C629.47 519.96 626.632 519.203 624.158 517.688C621.683 516.152 619.742 514.083 618.334 511.48C616.947 508.856 616.254 505.923 616.254 502.68C616.254 500.077 616.659 497.72 617.47 495.608C618.28 493.475 619.411 491.651 620.862 490.136C622.334 488.621 624.051 487.459 626.014 486.648C627.998 485.816 630.152 485.4 632.478 485.4C634.547 485.4 636.424 485.699 638.11 486.296C639.795 486.872 641.224 487.693 642.398 488.76C643.592 489.827 644.51 491.053 645.15 492.44L643.71 494.808V486.36H652.766V532.44H642.302ZM634.43 510.936C635.944 510.936 637.299 510.605 638.494 509.944C639.688 509.261 640.616 508.301 641.278 507.064C641.96 505.827 642.302 504.365 642.302 502.68C642.302 500.973 641.96 499.512 641.278 498.296C640.595 497.059 639.656 496.109 638.462 495.448C637.267 494.765 635.923 494.424 634.43 494.424C632.936 494.424 631.592 494.765 630.398 495.448C629.203 496.109 628.254 497.059 627.55 498.296C626.867 499.512 626.526 500.973 626.526 502.68C626.526 504.365 626.867 505.827 627.55 507.064C628.232 508.301 629.171 509.261 630.366 509.944C631.56 510.605 632.915 510.936 634.43 510.936ZM673.631 519.96C670.665 519.96 668.212 519.384 666.271 518.232C664.329 517.059 662.879 515.448 661.919 513.4C660.98 511.331 660.511 508.931 660.511 506.2V486.36H671.007V504.632C671.007 506.424 671.476 507.843 672.415 508.888C673.375 509.933 674.761 510.456 676.575 510.456C677.748 510.456 678.772 510.2 679.647 509.688C680.543 509.155 681.225 508.429 681.695 507.512C682.185 506.595 682.431 505.528 682.431 504.312V486.36H692.927V519H683.871V515.544C682.825 516.717 681.503 517.752 679.903 518.648C678.303 519.523 676.212 519.96 673.631 519.96ZM701.003 519V486.36H711.499V519H701.003ZM706.251 481.528C704.566 481.528 703.094 481.005 701.835 479.96C700.598 478.893 699.979 477.475 699.979 475.704C699.979 473.891 700.598 472.461 701.835 471.416C703.094 470.371 704.566 469.848 706.251 469.848C707.958 469.848 709.43 470.371 710.667 471.416C711.905 472.461 712.523 473.891 712.523 475.704C712.523 477.475 711.905 478.893 710.667 479.96C709.43 481.005 707.958 481.528 706.251 481.528Z" fill="white"/>
<path d="M835.282 307V290.344L830.226 292.136L828.834 287.992L839.794 284.12H840.146V307H835.282ZM851.6 307.48C850.139 307.48 848.758 307.272 847.456 306.856C846.155 306.44 845.078 305.864 844.224 305.128L845.744 300.984C846.448 301.688 847.291 302.205 848.272 302.536C849.254 302.856 850.267 303.016 851.312 303.016C852.134 303.016 852.843 302.899 853.44 302.664C854.048 302.429 854.512 302.072 854.832 301.592C855.163 301.112 855.328 300.509 855.328 299.784C855.328 299.176 855.158 298.648 854.816 298.2C854.486 297.752 854.016 297.411 853.408 297.176C852.811 296.931 852.102 296.808 851.28 296.808C850.747 296.808 850.187 296.872 849.6 297C849.014 297.128 848.422 297.325 847.824 297.592L845.648 295.192L846.832 284.616L859.728 284.648V289.176H850.48L849.968 293.096C850.363 293 850.752 292.925 851.136 292.872C851.531 292.819 851.936 292.792 852.352 292.792C853.899 292.792 855.264 293.08 856.448 293.656C857.643 294.232 858.576 295.064 859.248 296.152C859.92 297.229 860.256 298.52 860.256 300.024C860.256 301.539 859.894 302.856 859.168 303.976C858.454 305.085 857.446 305.949 856.144 306.568C854.854 307.176 853.339 307.48 851.6 307.48ZM865.643 310.68L861.387 309L872.619 281.24L876.891 282.904L865.643 310.68ZM887.237 307.48C885.722 307.48 884.373 307.176 883.189 306.568C882.005 305.96 881.008 305.117 880.197 304.04C879.386 302.963 878.768 301.72 878.341 300.312C877.925 298.904 877.717 297.4 877.717 295.8C877.717 294.189 877.925 292.68 878.341 291.272C878.768 289.864 879.386 288.627 880.197 287.56C881.008 286.483 882.005 285.64 883.189 285.032C884.373 284.424 885.722 284.12 887.237 284.12C888.741 284.12 890.085 284.424 891.269 285.032C892.453 285.64 893.45 286.483 894.261 287.56C895.072 288.627 895.685 289.864 896.101 291.272C896.528 292.68 896.741 294.189 896.741 295.8C896.741 297.4 896.528 298.904 896.101 300.312C895.685 301.72 895.072 302.963 894.261 304.04C893.45 305.117 892.453 305.96 891.269 306.568C890.085 307.176 888.741 307.48 887.237 307.48ZM887.237 302.92C887.909 302.92 888.517 302.765 889.061 302.456C889.616 302.147 890.09 301.693 890.485 301.096C890.88 300.488 891.184 299.741 891.397 298.856C891.61 297.971 891.717 296.952 891.717 295.8C891.717 294.264 891.53 292.968 891.157 291.912C890.784 290.845 890.261 290.04 889.589 289.496C888.917 288.941 888.133 288.664 887.237 288.664C886.565 288.664 885.952 288.824 885.397 289.144C884.842 289.453 884.368 289.912 883.973 290.52C883.578 291.117 883.274 291.859 883.061 292.744C882.858 293.629 882.757 294.648 882.757 295.8C882.757 297.336 882.938 298.632 883.301 299.688C883.674 300.744 884.197 301.549 884.869 302.104C885.541 302.648 886.33 302.92 887.237 302.92ZM906.343 307.48C905.351 307.48 904.375 307.368 903.415 307.144C902.466 306.931 901.602 306.637 900.823 306.264C900.044 305.891 899.431 305.464 898.983 304.984L900.567 300.792C901.164 301.475 901.959 302.019 902.951 302.424C903.954 302.819 904.972 303.016 906.007 303.016C906.786 303.016 907.468 302.893 908.055 302.648C908.642 302.392 909.095 302.035 909.415 301.576C909.746 301.117 909.911 300.579 909.911 299.96C909.911 298.989 909.554 298.237 908.839 297.704C908.135 297.171 907.218 296.904 906.087 296.904C905.682 296.904 905.255 296.936 904.807 297C904.37 297.053 903.922 297.139 903.463 297.256L902.055 293.944L907.911 288.888H899.239V284.6H913.879V288.552L908.471 293.784C909.548 293.859 910.572 294.152 911.543 294.664C912.514 295.176 913.308 295.907 913.927 296.856C914.546 297.795 914.855 298.957 914.855 300.344C914.855 301.731 914.492 302.963 913.767 304.04C913.042 305.107 912.039 305.949 910.759 306.568C909.479 307.176 908.007 307.48 906.343 307.48ZM920.277 310.68L916.021 309L927.253 281.24L931.525 282.904L920.277 310.68ZM932.479 307V303.512L937.247 299.24C938.719 297.917 939.871 296.819 940.703 295.944C941.535 295.069 942.121 294.301 942.463 293.64C942.804 292.979 942.975 292.312 942.975 291.64C942.975 290.648 942.644 289.885 941.983 289.352C941.332 288.819 940.399 288.552 939.183 288.552C938.212 288.552 937.279 288.744 936.383 289.128C935.487 289.512 934.681 290.077 933.967 290.824L932.159 286.968C933.172 286.061 934.34 285.363 935.663 284.872C936.985 284.371 938.335 284.12 939.711 284.12C941.364 284.12 942.804 284.408 944.031 284.984C945.257 285.56 946.201 286.365 946.863 287.4C947.535 288.424 947.871 289.619 947.871 290.984C947.871 291.901 947.689 292.797 947.327 293.672C946.964 294.547 946.324 295.533 945.407 296.632C944.5 297.72 943.22 299.043 941.567 300.6L939.375 302.648H948.463V307H932.479ZM960.644 307.48C959.13 307.48 957.78 307.176 956.596 306.568C955.412 305.96 954.415 305.117 953.604 304.04C952.794 302.963 952.175 301.72 951.748 300.312C951.332 298.904 951.124 297.4 951.124 295.8C951.124 294.189 951.332 292.68 951.748 291.272C952.175 289.864 952.794 288.627 953.604 287.56C954.415 286.483 955.412 285.64 956.596 285.032C957.78 284.424 959.13 284.12 960.644 284.12C962.148 284.12 963.492 284.424 964.676 285.032C965.86 285.64 966.858 286.483 967.668 287.56C968.479 288.627 969.092 289.864 969.508 291.272C969.935 292.68 970.148 294.189 970.148 295.8C970.148 297.4 969.935 298.904 969.508 300.312C969.092 301.72 968.479 302.963 967.668 304.04C966.858 305.117 965.86 305.96 964.676 306.568C963.492 307.176 962.148 307.48 960.644 307.48ZM960.644 302.92C961.316 302.92 961.924 302.765 962.468 302.456C963.023 302.147 963.498 301.693 963.892 301.096C964.287 300.488 964.591 299.741 964.804 298.856C965.018 297.971 965.124 296.952 965.124 295.8C965.124 294.264 964.938 292.968 964.564 291.912C964.191 290.845 963.668 290.04 962.996 289.496C962.324 288.941 961.54 288.664 960.644 288.664C959.972 288.664 959.359 288.824 958.804 289.144C958.25 289.453 957.775 289.912 957.38 290.52C956.986 291.117 956.682 291.859 956.468 292.744C956.266 293.629 956.164 294.648 956.164 295.8C956.164 297.336 956.346 298.632 956.708 299.688C957.082 300.744 957.604 301.549 958.276 302.104C958.948 302.648 959.738 302.92 960.644 302.92ZM972.214 307V303.512L976.982 299.24C978.454 297.917 979.606 296.819 980.438 295.944C981.27 295.069 981.856 294.301 982.198 293.64C982.539 292.979 982.71 292.312 982.71 291.64C982.71 290.648 982.379 289.885 981.718 289.352C981.067 288.819 980.134 288.552 978.918 288.552C977.947 288.552 977.014 288.744 976.118 289.128C975.222 289.512 974.416 290.077 973.702 290.824L971.894 286.968C972.907 286.061 974.075 285.363 975.398 284.872C976.72 284.371 978.07 284.12 979.446 284.12C981.099 284.12 982.539 284.408 983.766 284.984C984.992 285.56 985.936 286.365 986.598 287.4C987.27 288.424 987.606 289.619 987.606 290.984C987.606 291.901 987.424 292.797 987.062 293.672C986.699 294.547 986.059 295.533 985.142 296.632C984.235 297.72 982.955 299.043 981.302 300.6L979.11 302.648H988.198V307H972.214ZM997.915 307.48C996.454 307.48 995.073 307.272 993.771 306.856C992.47 306.44 991.393 305.864 990.539 305.128L992.059 300.984C992.763 301.688 993.606 302.205 994.587 302.536C995.569 302.856 996.582 303.016 997.627 303.016C998.449 303.016 999.158 302.899 999.755 302.664C1000.36 302.429 1000.83 302.072 1001.15 301.592C1001.48 301.112 1001.64 300.509 1001.64 299.784C1001.64 299.176 1001.47 298.648 1001.13 298.2C1000.8 297.752 1000.33 297.411 999.723 297.176C999.126 296.931 998.417 296.808 997.595 296.808C997.062 296.808 996.502 296.872 995.915 297C995.329 297.128 994.737 297.325 994.139 297.592L991.963 295.192L993.147 284.616L1006.04 284.648V289.176H996.795L996.283 293.096C996.678 293 997.067 292.925 997.451 292.872C997.846 292.819 998.251 292.792 998.667 292.792C1000.21 292.792 1001.58 293.08 1002.76 293.656C1003.96 294.232 1004.89 295.064 1005.56 296.152C1006.24 297.229 1006.57 298.52 1006.57 300.024C1006.57 301.539 1006.21 302.856 1005.48 303.976C1004.77 305.085 1003.76 305.949 1002.46 306.568C1001.17 307.176 999.654 307.48 997.915 307.48Z" fill="white"/>
<path d="M842.856 930.48C841.139 930.48 839.55 930.187 838.088 929.6C836.638 929.003 835.374 928.176 834.296 927.12C833.219 926.064 832.382 924.827 831.784 923.408C831.198 921.989 830.904 920.453 830.904 918.8C830.904 917.136 831.198 915.595 831.784 914.176C832.382 912.757 833.219 911.52 834.296 910.464C835.374 909.408 836.638 908.587 838.088 908C839.55 907.413 841.139 907.12 842.856 907.12C844.584 907.12 846.174 907.419 847.624 908.016C849.075 908.613 850.339 909.445 851.416 910.512C852.494 911.579 853.326 912.821 853.912 914.24C854.51 915.648 854.808 917.168 854.808 918.8C854.808 920.453 854.51 921.989 853.912 923.408C853.326 924.827 852.494 926.064 851.416 927.12C850.339 928.176 849.075 929.003 847.624 929.6C846.174 930.187 844.584 930.48 842.856 930.48ZM842.856 925.488C843.784 925.488 844.632 925.333 845.4 925.024C846.179 924.715 846.856 924.267 847.432 923.68C848.008 923.093 848.451 922.389 848.76 921.568C849.08 920.736 849.24 919.813 849.24 918.8C849.24 917.435 848.963 916.251 848.408 915.248C847.864 914.245 847.107 913.472 846.136 912.928C845.176 912.373 844.083 912.096 842.856 912.096C841.939 912.096 841.091 912.256 840.312 912.576C839.534 912.885 838.856 913.333 838.28 913.92C837.715 914.507 837.272 915.211 836.952 916.032C836.632 916.853 836.472 917.776 836.472 918.8C836.472 920.155 836.75 921.333 837.304 922.336C837.859 923.339 838.616 924.117 839.576 924.672C840.547 925.216 841.64 925.488 842.856 925.488ZM868.383 930.48C867.369 930.48 866.441 930.331 865.599 930.032C864.756 929.733 864.031 929.312 863.423 928.768C862.825 928.224 862.367 927.595 862.047 926.88L862.767 925.712V930H858.239V906.96H863.471V917.36L862.287 916.16C863.033 915.189 863.908 914.453 864.911 913.952C865.913 913.451 867.039 913.2 868.287 913.2C869.887 913.2 871.305 913.584 872.543 914.352C873.78 915.109 874.745 916.139 875.439 917.44C876.143 918.741 876.495 920.208 876.495 921.84C876.495 923.131 876.292 924.309 875.887 925.376C875.481 926.432 874.911 927.344 874.175 928.112C873.449 928.869 872.596 929.456 871.615 929.872C870.633 930.277 869.556 930.48 868.383 930.48ZM867.407 925.968C868.164 925.968 868.836 925.803 869.423 925.472C870.02 925.131 870.489 924.651 870.831 924.032C871.183 923.413 871.359 922.683 871.359 921.84C871.359 920.987 871.188 920.256 870.847 919.648C870.505 919.029 870.036 918.555 869.439 918.224C868.841 917.883 868.164 917.712 867.407 917.712C866.649 917.712 865.972 917.883 865.375 918.224C864.788 918.555 864.324 919.029 863.983 919.648C863.641 920.256 863.471 920.987 863.471 921.84C863.471 922.683 863.641 923.413 863.983 924.032C864.324 924.651 864.793 925.131 865.391 925.472C865.988 925.803 866.66 925.968 867.407 925.968ZM885.679 930.448C884.164 930.448 882.778 930.261 881.519 929.888C880.271 929.515 879.194 928.987 878.287 928.304L879.919 924.704C880.804 925.269 881.754 925.717 882.767 926.048C883.78 926.368 884.74 926.528 885.647 926.528C886.479 926.528 887.114 926.416 887.551 926.192C887.988 925.957 888.207 925.621 888.207 925.184C888.207 924.8 888.004 924.517 887.599 924.336C887.204 924.155 886.426 923.957 885.263 923.744C883.066 923.371 881.455 922.757 880.431 921.904C879.418 921.04 878.911 919.861 878.911 918.368C878.911 917.301 879.204 916.368 879.791 915.568C880.378 914.768 881.188 914.149 882.223 913.712C883.268 913.264 884.468 913.04 885.823 913.04C887.146 913.04 888.394 913.216 889.567 913.568C890.751 913.92 891.764 914.411 892.607 915.04L891.023 918.64C890.586 918.309 890.079 918.016 889.503 917.76C888.938 917.504 888.351 917.307 887.743 917.168C887.135 917.029 886.543 916.96 885.967 916.96C885.252 916.96 884.671 917.072 884.223 917.296C883.786 917.509 883.567 917.808 883.567 918.192C883.567 918.587 883.759 918.88 884.143 919.072C884.527 919.264 885.295 919.483 886.447 919.728C888.772 920.197 890.42 920.832 891.391 921.632C892.362 922.421 892.847 923.531 892.847 924.96C892.847 926.069 892.543 927.035 891.935 927.856C891.338 928.677 890.5 929.317 889.423 929.776C888.356 930.224 887.108 930.448 885.679 930.448ZM903.998 930.48C902.206 930.48 900.632 930.123 899.278 929.408C897.923 928.683 896.867 927.675 896.11 926.384C895.352 925.083 894.974 923.563 894.974 921.824C894.974 920.565 895.192 919.408 895.63 918.352C896.078 917.296 896.696 916.384 897.486 915.616C898.286 914.848 899.224 914.256 900.302 913.84C901.39 913.413 902.584 913.2 903.886 913.2C905.315 913.2 906.59 913.456 907.71 913.968C908.83 914.469 909.752 915.173 910.478 916.08C911.214 916.976 911.72 918.037 911.998 919.264C912.275 920.48 912.286 921.803 912.03 923.232H899.774C899.784 923.872 899.976 924.432 900.35 924.912C900.723 925.392 901.235 925.771 901.886 926.048C902.536 926.315 903.294 926.448 904.158 926.448C905.118 926.448 906.03 926.325 906.894 926.08C907.758 925.824 908.584 925.435 909.374 924.912L911.022 928.464C910.52 928.848 909.87 929.195 909.07 929.504C908.28 929.803 907.438 930.037 906.542 930.208C905.656 930.389 904.808 930.48 903.998 930.48ZM900.094 919.696H907.038C907.016 918.875 906.712 918.219 906.126 917.728C905.539 917.237 904.744 916.992 903.742 916.992C902.728 916.992 901.886 917.237 901.214 917.728C900.552 918.219 900.179 918.875 900.094 919.696ZM915.27 930V913.68H920.518V915.584C921.008 914.741 921.659 914.128 922.47 913.744C923.28 913.36 924.16 913.168 925.11 913.168C925.472 913.168 925.798 913.189 926.086 913.232C926.374 913.275 926.656 913.323 926.934 913.376L926.31 918.768C925.947 918.64 925.563 918.539 925.158 918.464C924.752 918.379 924.347 918.336 923.942 918.336C922.95 918.336 922.128 918.624 921.478 919.2C920.838 919.765 920.518 920.597 920.518 921.696V930H915.27ZM933.86 930L928.1 913.68H933.732L937.204 925.472H936.628L940.02 913.68H945.524L939.972 930H933.86ZM952.549 930.48C951.461 930.48 950.485 930.272 949.621 929.856C948.757 929.429 948.075 928.827 947.573 928.048C947.072 927.259 946.821 926.315 946.821 925.216C946.821 924.277 947.051 923.445 947.509 922.72C947.979 921.995 948.683 921.397 949.621 920.928C950.56 920.459 951.739 920.144 953.157 919.984C954.587 919.813 956.256 919.813 958.165 919.984L958.213 923.248C957.2 923.067 956.283 922.976 955.461 922.976C954.651 922.965 953.957 923.035 953.381 923.184C952.816 923.323 952.379 923.541 952.069 923.84C951.76 924.139 951.605 924.507 951.605 924.944C951.605 925.509 951.819 925.941 952.245 926.24C952.683 926.539 953.264 926.688 953.989 926.688C954.619 926.688 955.184 926.576 955.685 926.352C956.197 926.128 956.603 925.803 956.901 925.376C957.211 924.939 957.365 924.405 957.365 923.776V920.048C957.365 919.461 957.243 918.944 956.997 918.496C956.752 918.048 956.363 917.701 955.829 917.456C955.307 917.2 954.608 917.072 953.733 917.072C952.891 917.072 952.053 917.2 951.221 917.456C950.389 917.701 949.643 918.075 948.981 918.576L947.637 914.976C948.693 914.315 949.824 913.829 951.029 913.52C952.235 913.2 953.419 913.04 954.581 913.04C956.117 913.04 957.467 913.285 958.629 913.776C959.803 914.267 960.72 915.024 961.381 916.048C962.043 917.072 962.373 918.384 962.373 919.984V930H957.845V928.272C957.323 928.976 956.603 929.52 955.685 929.904C954.768 930.288 953.723 930.48 952.549 930.48ZM974.264 930.48C972.536 930.48 970.989 930.107 969.624 929.36C968.269 928.603 967.197 927.573 966.408 926.272C965.618 924.96 965.224 923.483 965.224 921.84C965.224 920.603 965.453 919.461 965.912 918.416C966.381 917.371 967.037 916.459 967.88 915.68C968.722 914.891 969.704 914.283 970.824 913.856C971.944 913.419 973.16 913.2 974.472 913.2C975.709 913.2 976.856 913.371 977.912 913.712C978.968 914.043 979.917 914.544 980.76 915.216L978.456 919.104C977.933 918.624 977.357 918.272 976.728 918.048C976.109 917.824 975.458 917.712 974.776 917.712C973.88 917.712 973.106 917.872 972.456 918.192C971.805 918.512 971.304 918.981 970.952 919.6C970.61 920.219 970.44 920.96 970.44 921.824C970.44 923.125 970.824 924.144 971.592 924.88C972.37 925.605 973.437 925.968 974.792 925.968C975.56 925.968 976.28 925.829 976.952 925.552C977.634 925.264 978.258 924.848 978.824 924.304L980.952 928.272C980.034 928.955 978.984 929.493 977.8 929.888C976.626 930.283 975.448 930.48 974.264 930.48ZM973.256 937.2C972.413 937.2 971.629 937.088 970.904 936.864C970.189 936.651 969.57 936.384 969.048 936.064L969.992 933.728C970.354 934.048 970.84 934.283 971.448 934.432C972.066 934.581 972.605 934.656 973.064 934.656C973.501 934.656 973.853 934.597 974.12 934.48C974.386 934.373 974.52 934.208 974.52 933.984C974.52 933.696 974.28 933.493 973.8 933.376C973.33 933.269 972.818 933.264 972.264 933.36L971.272 931.504L972.152 929.36H974.936L974.408 930.992C975.57 931.109 976.493 931.413 977.176 931.904C977.869 932.395 978.216 933.083 978.216 933.968C978.216 934.725 977.965 935.339 977.464 935.808C976.962 936.288 976.328 936.64 975.56 936.864C974.802 937.088 974.034 937.2 973.256 937.2ZM991.156 930.48C989.374 930.48 987.801 930.091 986.436 929.312C985.07 928.523 983.998 927.472 983.22 926.16C982.452 924.848 982.068 923.408 982.068 921.84C982.068 920.699 982.286 919.611 982.724 918.576C983.172 917.531 983.801 916.608 984.612 915.808C985.422 914.997 986.382 914.363 987.492 913.904C988.601 913.435 989.822 913.2 991.156 913.2C992.937 913.2 994.51 913.595 995.876 914.384C997.241 915.163 998.308 916.208 999.076 917.52C999.844 918.832 1000.23 920.272 1000.23 921.84C1000.23 922.981 1000.01 924.075 999.572 925.12C999.134 926.155 998.51 927.072 997.7 927.872C996.889 928.672 995.929 929.307 994.82 929.776C993.71 930.245 992.489 930.48 991.156 930.48ZM991.156 925.968C991.902 925.968 992.574 925.803 993.172 925.472C993.769 925.131 994.238 924.651 994.58 924.032C994.921 923.413 995.092 922.683 995.092 921.84C995.092 920.987 994.921 920.256 994.58 919.648C994.249 919.029 993.785 918.555 993.188 918.224C992.59 917.883 991.913 917.712 991.156 917.712C990.398 917.712 989.721 917.883 989.124 918.224C988.526 918.555 988.057 919.029 987.716 919.648C987.374 920.256 987.204 920.987 987.204 921.84C987.204 922.683 987.374 923.413 987.716 924.032C988.068 924.651 988.542 925.131 989.14 925.472C989.737 925.803 990.409 925.968 991.156 925.968ZM986.324 911.408L984.292 909.312C984.729 908.16 985.316 907.275 986.052 906.656C986.788 906.027 987.636 905.712 988.596 905.712C989.31 905.712 989.961 905.856 990.548 906.144C991.145 906.432 991.71 906.72 992.244 907.008C992.777 907.285 993.321 907.424 993.876 907.424C994.356 907.424 994.777 907.253 995.14 906.912C995.502 906.571 995.796 906.048 996.02 905.344L998.02 907.472C997.785 908.635 997.3 909.515 996.564 910.112C995.828 910.709 994.969 911.008 993.988 911.008C993.262 911.008 992.585 910.869 991.956 910.592C991.337 910.304 990.745 910.016 990.18 909.728C989.625 909.44 989.086 909.296 988.564 909.296C988.073 909.296 987.636 909.472 987.252 909.824C986.878 910.165 986.569 910.693 986.324 911.408ZM1011.19 930.48C1009.39 930.48 1007.82 930.123 1006.47 929.408C1005.11 928.683 1004.05 927.675 1003.3 926.384C1002.54 925.083 1002.16 923.563 1002.16 921.824C1002.16 920.565 1002.38 919.408 1002.82 918.352C1003.27 917.296 1003.88 916.384 1004.67 915.616C1005.47 914.848 1006.41 914.256 1007.49 913.84C1008.58 913.413 1009.77 913.2 1011.07 913.2C1012.5 913.2 1013.78 913.456 1014.9 913.968C1016.02 914.469 1016.94 915.173 1017.67 916.08C1018.4 916.976 1018.91 918.037 1019.19 919.264C1019.46 920.48 1019.47 921.803 1019.22 923.232H1006.96C1006.97 923.872 1007.16 924.432 1007.54 924.912C1007.91 925.392 1008.42 925.771 1009.07 926.048C1009.72 926.315 1010.48 926.448 1011.35 926.448C1012.31 926.448 1013.22 926.325 1014.08 926.08C1014.95 925.824 1015.77 925.435 1016.56 924.912L1018.21 928.464C1017.71 928.848 1017.06 929.195 1016.26 929.504C1015.47 929.803 1014.63 930.037 1013.73 930.208C1012.84 930.389 1012 930.48 1011.19 930.48ZM1007.28 919.696H1014.23C1014.2 918.875 1013.9 918.219 1013.31 917.728C1012.73 917.237 1011.93 916.992 1010.93 916.992C1009.92 916.992 1009.07 917.237 1008.4 917.728C1007.74 918.219 1007.37 918.875 1007.28 919.696ZM1028.59 930.448C1027.07 930.448 1025.68 930.261 1024.43 929.888C1023.18 929.515 1022.1 928.987 1021.19 928.304L1022.83 924.704C1023.71 925.269 1024.66 925.717 1025.67 926.048C1026.69 926.368 1027.65 926.528 1028.55 926.528C1029.39 926.528 1030.02 926.416 1030.46 926.192C1030.89 925.957 1031.11 925.621 1031.11 925.184C1031.11 924.8 1030.91 924.517 1030.51 924.336C1030.11 924.155 1029.33 923.957 1028.17 923.744C1025.97 923.371 1024.36 922.757 1023.34 921.904C1022.32 921.04 1021.82 919.861 1021.82 918.368C1021.82 917.301 1022.11 916.368 1022.7 915.568C1023.28 914.768 1024.09 914.149 1025.13 913.712C1026.17 913.264 1027.37 913.04 1028.73 913.04C1030.05 913.04 1031.3 913.216 1032.47 913.568C1033.66 913.92 1034.67 914.411 1035.51 915.04L1033.93 918.64C1033.49 918.309 1032.99 918.016 1032.41 917.76C1031.84 917.504 1031.26 917.307 1030.65 917.168C1030.04 917.029 1029.45 916.96 1028.87 916.96C1028.16 916.96 1027.58 917.072 1027.13 917.296C1026.69 917.509 1026.47 917.808 1026.47 918.192C1026.47 918.587 1026.67 918.88 1027.05 919.072C1027.43 919.264 1028.2 919.483 1029.35 919.728C1031.68 920.197 1033.33 920.832 1034.3 921.632C1035.27 922.421 1035.75 923.531 1035.75 924.96C1035.75 926.069 1035.45 927.035 1034.84 927.856C1034.24 928.677 1033.41 929.317 1032.33 929.776C1031.26 930.224 1030.01 930.448 1028.59 930.448Z" fill="white"/>
<defs>
<linearGradient id="paint0_linear_88_2" x1="0" y1="540" x2="1080" y2="540" gradientUnits="userSpaceOnUse">
<stop stop-color="#4BA2D8"/>
<stop offset="1" stop-color="#275572"/>
</linearGradient>
</defs>
</svg>
